<svg xmlns="http://www.w3.org/2000/svg" viewBox="0 0 128 128" fill="none">
  <!-- Background rounded square -->
  <rect x="8" y="8" width="112" height="112" rx="20" fill="#10B981"/>

  <!-- Viewfinder/capture frame -->
  <rect x="32" y="32" width="64" height="64" rx="8" stroke="white" stroke-width="5" fill="none"/>

  <!-- Corner accents -->
  <path d="M32 48 L32 40 Q32 32 40 32 L48 32" stroke="white" stroke-width="6" stroke-linecap="round" fill="none"/>
  <path d="M96 48 L96 40 Q96 32 88 32 L80 32" stroke="white" stroke-width="6" stroke-linecap="round" fill="none"/>
  <path d="M32 80 L32 88 Q32 96 40 96 L48 96" stroke="white" stroke-width="6" stroke-linecap="round" fill="none"/>
  <path d="M96 80 L96 88 Q96 96 88 96 L80 96" stroke="white" stroke-width="6" stroke-linecap="round" fill="none"/>

  <!-- Download arrow in center -->
  <path d="M64 48 L64 72" stroke="white" stroke-width="5" stroke-linecap="round"/>
  <path d="M54 64 L64 74 L74 64" stroke="white" stroke-width="5" stroke-linecap="round" stroke-linejoin="round" fill="none"/>
</svg>
